<svg width="394" height="136" viewBox="0 0 394 136" fill="none" xmlns="http://www.w3.org/2000/svg">
<path d="M343.934 39.8782L343.936 39.8816C345.079 41.6194 345.255 41.8872 344.171 44.0062C343.721 44.8861 344.208 45.9048 345.258 46.2813C345.515 46.3742 345.792 46.4223 346.072 46.4225C346.875 46.4217 347.639 46.0282 347.974 45.3717C349.769 41.8673 349.026 40.4366 347.561 38.2088L347.555 38.1997C347.304 37.8188 347.023 37.3925 346.727 36.8949C345.701 35.1773 348.57 33.0029 348.623 32.964C349.485 32.3404 349.583 31.2499 348.841 30.5248C348.098 29.7989 346.789 29.7143 345.923 30.3369C343.912 31.7812 341.036 35.1148 343.025 38.4449C343.351 38.9917 343.658 39.4594 343.934 39.8782Z" fill="#333333"/>
<path fill-rule="evenodd" clip-rule="evenodd" d="M374.85 50.1105C375.071 50.1006 375.292 50.0944 375.515 50.0944C384.209 50.0944 391.283 57.6702 391.283 66.9823C391.283 76.2943 384.209 83.8701 375.515 83.8701C375.38 83.8701 375.246 83.8683 375.112 83.8647C373.655 90.8045 368.382 96.2438 361.801 97.4956H368.77C370.401 97.4956 371.723 98.9114 371.723 100.658C371.723 102.404 370.401 103.82 368.77 103.82H324.254C322.623 103.82 321.301 102.404 321.301 100.658C321.301 98.9114 322.623 97.4956 324.254 97.4956H329.874C322.107 96.0182 316.16 88.7074 316.16 79.9807V50.9931C316.16 50.7535 316.249 50.5238 316.407 50.3544C316.565 50.185 316.78 50.0898 317.003 50.0898H374.672C374.732 50.0898 374.792 50.0968 374.85 50.1105ZM375.515 56.4189V77.5456C380.953 77.5456 385.378 72.8069 385.378 66.9823C385.378 61.1576 380.953 56.4189 375.515 56.4189ZM343.977 67.0697C344.613 66.8869 345.289 66.7954 346.004 66.7954C346.72 66.7954 347.257 66.9681 347.614 67.3135C347.992 67.6589 348.181 68.0754 348.181 68.563C348.181 69.1522 347.992 69.6805 347.614 70.1478C347.237 70.5947 346.819 71.0519 346.362 71.5192C346.044 71.8442 345.736 72.1795 345.438 72.5249C345.14 72.8702 344.871 73.2461 344.633 73.6525C344.414 74.0385 344.235 74.4651 344.096 74.9324C343.957 75.3794 343.887 75.8873 343.887 76.4562V77.1267C343.907 77.3705 343.937 77.594 343.977 77.7971H347.912C347.893 77.6752 347.883 77.533 347.883 77.3705V77.0048C347.883 76.6594 347.952 76.3241 348.091 75.9991C348.23 75.6537 348.399 75.3286 348.598 75.0239C348.817 74.7191 349.055 74.4347 349.314 74.1705C349.572 73.8861 349.821 73.622 350.059 73.3782C350.377 73.0531 350.705 72.7077 351.043 72.342C351.381 71.9763 351.679 71.5903 351.937 71.1839C352.196 70.7776 352.404 70.3408 352.563 69.8735C352.742 69.3859 352.832 68.8576 352.832 68.2888C352.832 67.7199 352.732 67.1205 352.534 66.4907C352.355 65.8609 352.027 65.2818 351.55 64.7536C351.073 64.2253 350.417 63.7885 349.582 63.4431C348.767 63.0977 347.724 62.925 346.452 62.925C345.438 62.925 344.404 63.0673 343.351 63.3517C342.297 63.6158 341.383 64.0019 340.608 64.5098L341.86 67.9535C342.635 67.5472 343.341 67.2526 343.977 67.0697ZM347.912 84.197C348.489 83.7094 348.777 83.0186 348.777 82.1247C348.777 81.2307 348.489 80.5399 347.912 80.0523C347.356 79.5647 346.72 79.3209 346.004 79.3209C345.289 79.3209 344.643 79.5647 344.066 80.0523C343.51 80.5399 343.232 81.2307 343.232 82.1247C343.232 83.0186 343.51 83.7094 344.066 84.197C344.643 84.6846 345.289 84.9284 346.004 84.9284C346.72 84.9284 347.356 84.6846 347.912 84.197Z" fill="#333333"/>
<path d="M357.906 39.8816L357.904 39.8782C357.629 39.4594 357.321 38.9917 356.995 38.4449C355.006 35.1148 357.882 31.7812 359.893 30.3369C360.759 29.7143 362.068 29.7989 362.811 30.5248C363.553 31.2499 363.455 32.3404 362.593 32.964C362.541 33.0029 359.671 35.1773 360.697 36.8949C360.993 37.3926 361.274 37.8188 361.525 38.1997L361.531 38.2088C362.996 40.4366 363.739 41.8673 361.945 45.3717C361.609 46.0282 360.845 46.4217 360.042 46.4225C359.762 46.4223 359.485 46.3742 359.228 46.2813C358.178 45.9048 357.691 44.8861 358.142 44.0062C359.225 41.8872 359.049 41.6194 357.906 39.8816Z" fill="#333333"/>
<path d="M329.964 39.8782L329.966 39.8816C331.109 41.6194 331.285 41.8872 330.201 44.0062C329.751 44.8861 330.238 45.9048 331.287 46.2813C331.545 46.3742 331.822 46.4223 332.102 46.4225C332.905 46.4217 333.669 46.0282 334.004 45.3717C335.799 41.8673 335.056 40.4366 333.591 38.2088L333.585 38.1997C333.334 37.8188 333.053 37.3926 332.756 36.8949C331.731 35.1773 334.6 33.0029 334.653 32.964C335.515 32.3404 335.613 31.2499 334.871 30.5248C334.127 29.7989 332.819 29.7143 331.953 30.3369C329.941 31.7812 327.066 35.1148 329.054 38.4449C329.381 38.9917 329.688 39.4594 329.964 39.8782Z" fill="#333333"/>
<path d="M17.374 84.8096C17.374 97.6643 27.2594 107.097 39.1772 107.097C46.5681 107.097 52.296 103.491 55.8067 98.2192C56.5458 97.1094 56.0839 96.0922 55.0676 95.1674L52.2036 92.8554C51.2798 92.1155 50.2635 92.1155 49.3397 93.0403C47.03 95.1674 44.8127 98.3117 39.2696 98.3117C32.1558 98.3117 26.6127 92.393 26.6127 84.7171C26.6127 77.1338 32.2482 71.215 39.5467 71.215C42.965 71.215 46.3833 73.3421 48.3234 75.4691C49.0625 76.209 49.894 77.0413 51.095 75.9315L54.4209 72.8797C55.3448 72.0474 55.6219 70.8451 54.7905 69.8278C50.8178 64.9264 45.9214 62.4294 39.2696 62.4294C27.4441 62.4294 17.374 72.2323 17.374 84.8096Z" fill="#333333"/>
<path d="M65.5246 104.045C65.5246 105.155 66.4484 106.08 67.5571 106.08H72.7307C73.7469 106.08 74.7632 105.155 74.7632 104.045V65.3888C74.7632 64.3715 73.7469 63.3542 72.7307 63.3542H67.5571C66.4484 63.3542 65.5246 64.3715 65.5246 65.3888V104.045ZM70.1439 54.1987C73.6546 54.1987 76.4261 51.4243 76.4261 48.0026C76.4261 44.4883 73.6546 41.7139 70.1439 41.7139C66.7256 41.7139 64.0464 44.4883 64.0464 48.0026C64.0464 51.4243 66.7256 54.1987 70.1439 54.1987Z" fill="#333333"/>
<path d="M85.1321 84.7171C85.1321 96.9245 93.5392 107.097 106.473 107.097C113.587 107.097 119.223 104.508 122.271 101.826C123.565 100.716 123.195 99.8838 122.456 98.959L119.962 95.0749C119.223 93.9651 118.391 94.2426 117.467 94.8899C114.88 96.7395 111.924 98.4966 107.028 98.4966C99.5443 98.4966 94.3707 92.5779 94.2783 86.8442H123.75C124.673 86.8442 125.597 86.1043 125.69 84.9946C125.782 84.2547 125.874 82.775 125.874 82.0352C125.874 70.6602 117.467 62.4294 106.381 62.4294C93.5392 62.4294 85.1321 72.6947 85.1321 84.7171ZM94.7403 80.0006C95.387 74.6368 99.452 70.2902 106.196 70.2902C112.478 70.2902 116.543 74.8218 116.728 80.0006H94.7403ZM95.1098 55.9558C95.6641 56.6957 96.1261 56.8806 97.2347 56.2333L106.473 50.2221L115.712 56.2333C116.821 56.9731 117.283 56.6957 117.837 55.9558L119.685 53.4589C120.146 52.8115 119.685 52.0717 119.13 51.7018L107.582 42.6387C106.935 42.1763 105.919 42.1763 105.365 42.6387L93.8164 51.7018C93.2621 52.0717 92.8002 52.8115 93.2621 53.4589L95.1098 55.9558Z" fill="#333333"/>
<path d="M135.536 104.045C135.536 105.155 136.46 106.08 137.568 106.08H142.28C144.036 106.08 144.775 105.433 144.775 104.045V77.4112C145.421 75.9315 149.302 71.215 156.046 71.215C161.589 71.215 164.453 75.2842 164.453 82.2202V104.045C164.453 105.155 165.377 106.08 166.485 106.08H171.659C172.675 106.08 173.691 105.155 173.691 104.045V82.5901C173.691 71.4925 170.181 62.4294 157.154 62.4294C148.655 62.4294 143.758 67.2384 142.835 68.3482L141.541 64.649C141.356 63.8166 140.71 63.3542 139.786 63.3542H137.568C136.46 63.3542 135.536 64.3715 135.536 65.3888V104.045Z" fill="#333333"/>
<path d="M183.471 84.8096C183.471 97.6643 193.356 107.097 205.274 107.097C212.665 107.097 218.393 103.491 221.903 98.2192C222.642 97.1094 222.181 96.0922 221.164 95.1674L218.3 92.8554C217.376 92.1155 216.36 92.1155 215.436 93.0403C213.127 95.1674 210.909 98.3117 205.366 98.3117C198.253 98.3117 192.709 92.393 192.709 84.7171C192.709 77.1338 198.345 71.215 205.643 71.215C209.062 71.215 212.48 73.3421 214.42 75.4691C215.159 76.209 215.991 77.0413 217.192 75.9315L220.518 72.8797C221.441 72.0474 221.719 70.8451 220.887 69.8278C216.915 64.9264 212.018 62.4294 205.366 62.4294C193.541 62.4294 183.471 72.2323 183.471 84.8096Z" fill="#333333"/>
<path d="M231.621 104.045C231.621 105.155 232.545 106.08 233.654 106.08H238.827C239.844 106.08 240.86 105.155 240.86 104.045V65.3888C240.86 64.3715 239.844 63.3542 238.827 63.3542H233.654C232.545 63.3542 231.621 64.3715 231.621 65.3888V104.045ZM236.241 54.1987C239.751 54.1987 242.523 51.4243 242.523 48.0026C242.523 44.4883 239.751 41.7139 236.241 41.7139C232.822 41.7139 230.143 44.4883 230.143 48.0026C230.143 51.4243 232.822 54.1987 236.241 54.1987Z" fill="#333333"/>
<path d="M250.582 92.8554C250.582 101.733 256.31 107.097 264.348 107.097C270.907 107.097 275.157 103.953 277.466 101.733L278.483 104.6C278.945 105.71 279.407 106.08 280.238 106.08H283.287C284.303 106.08 285.319 105.155 285.319 104.045V81.2954C285.319 70.6602 284.026 62.4294 270.353 62.4294C262.5 62.4294 256.402 64.5565 255.663 64.8339C254.647 65.2038 254 65.8512 254.278 67.3309L255.109 70.8451C255.386 72.0474 256.218 72.8797 257.511 72.6022C259.728 71.9549 264.532 70.5677 269.429 70.5677C274.787 70.5677 276.45 73.6195 276.265 80.3706C276.265 80.3706 272.108 79.0758 267.674 79.0758C256.68 79.0758 250.582 84.9946 250.582 92.8554ZM259.636 92.7629C259.636 88.3238 263.424 85.7344 268.413 85.7344C272.293 85.7344 275.619 86.8442 276.173 87.2141V94.335C274.88 96.4621 270.538 99.5139 266.288 99.5139C261.853 99.5139 259.636 96.5546 259.636 92.7629Z" fill="#333333"/>
<path d="M299.179 98.8557C299.179 101.728 301.527 104.078 304.331 104.078C307.266 104.078 309.613 101.728 309.613 98.8557C309.613 95.9181 307.266 93.568 304.331 93.568C301.527 93.568 299.179 95.9181 299.179 98.8557Z" fill="#E04854"/>
</svg>
